<mxfile host="app.diagrams.net" agent="Mozilla/5.0 (Windows NT 10.0; Win64; x64) AppleWebKit/537.36 (KHTML, like Gecko) Chrome/134.0.0.0 Safari/537.36" version="26.1.0">
  <diagram name="Страница — 1" id="aoNsjSHCl63riwAWtVzU">
    <mxGraphModel dx="643" dy="1706" grid="1" gridSize="10" guides="1" tooltips="1" connect="1" arrows="1" fold="1" page="1" pageScale="1" pageWidth="827" pageHeight="1169" math="0" shadow="0">
      <root>
        <mxCell id="0" />
        <mxCell id="1" parent="0" />
        <mxCell id="A3DCuacnZcsxC5jQ6PG0-1" value="Начало" style="ellipse;whiteSpace=wrap;html=1;" vertex="1" parent="1">
          <mxGeometry x="180" y="-1150" width="120" height="80" as="geometry" />
        </mxCell>
        <mxCell id="A3DCuacnZcsxC5jQ6PG0-3" value="" style="endArrow=classic;html=1;rounded=0;" edge="1" parent="1" target="A3DCuacnZcsxC5jQ6PG0-4">
          <mxGeometry width="50" height="50" relative="1" as="geometry">
            <mxPoint x="240" y="-1070" as="sourcePoint" />
            <mxPoint x="240" y="-1050" as="targetPoint" />
          </mxGeometry>
        </mxCell>
        <mxCell id="A3DCuacnZcsxC5jQ6PG0-4" value="setlocale(LC_ALL, &quot;Ru&quot;);" style="rounded=0;whiteSpace=wrap;html=1;" vertex="1" parent="1">
          <mxGeometry x="180" y="-1050" width="120" height="60" as="geometry" />
        </mxCell>
        <mxCell id="A3DCuacnZcsxC5jQ6PG0-5" value="" style="endArrow=classic;html=1;rounded=0;" edge="1" parent="1" target="A3DCuacnZcsxC5jQ6PG0-6">
          <mxGeometry width="50" height="50" relative="1" as="geometry">
            <mxPoint x="240" y="-990" as="sourcePoint" />
            <mxPoint x="240" y="-970" as="targetPoint" />
          </mxGeometry>
        </mxCell>
        <mxCell id="A3DCuacnZcsxC5jQ6PG0-6" value="cout &lt;&lt; &quot;Сумма для 8 параметров: &quot; &lt;&lt; sum(8, 1, 2, 3, 4, 5, 6, 7, 8) &lt;&lt; endl;" style="shape=parallelogram;perimeter=parallelogramPerimeter;whiteSpace=wrap;html=1;fixedSize=1;" vertex="1" parent="1">
          <mxGeometry x="115" y="-970" width="250" height="60" as="geometry" />
        </mxCell>
        <mxCell id="A3DCuacnZcsxC5jQ6PG0-7" value="" style="endArrow=classic;html=1;rounded=0;" edge="1" parent="1" target="A3DCuacnZcsxC5jQ6PG0-8">
          <mxGeometry width="50" height="50" relative="1" as="geometry">
            <mxPoint x="240" y="-910" as="sourcePoint" />
            <mxPoint x="240" y="-890" as="targetPoint" />
          </mxGeometry>
        </mxCell>
        <mxCell id="A3DCuacnZcsxC5jQ6PG0-8" value="cout &lt;&lt; &quot;Сумма для 10 параметров: &quot; &lt;&lt; sum(10, 1, 2, 3, 4, 5, 6, 7, 8, 9, 10) &lt;&lt; endl;" style="shape=parallelogram;perimeter=parallelogramPerimeter;whiteSpace=wrap;html=1;fixedSize=1;" vertex="1" parent="1">
          <mxGeometry x="107.5" y="-890" width="265" height="60" as="geometry" />
        </mxCell>
        <mxCell id="A3DCuacnZcsxC5jQ6PG0-9" value="" style="endArrow=classic;html=1;rounded=0;" edge="1" parent="1" target="A3DCuacnZcsxC5jQ6PG0-10">
          <mxGeometry width="50" height="50" relative="1" as="geometry">
            <mxPoint x="240" y="-830" as="sourcePoint" />
            <mxPoint x="240" y="-810" as="targetPoint" />
          </mxGeometry>
        </mxCell>
        <mxCell id="A3DCuacnZcsxC5jQ6PG0-10" value="cout &lt;&lt; &quot;Сумма для 12 параметров: &quot; &lt;&lt; sum(12, 1, 2, 3, 4, 5, 6, 7, 8, 9, 10, 11, 12) &lt;&lt; endl;" style="shape=parallelogram;perimeter=parallelogramPerimeter;whiteSpace=wrap;html=1;fixedSize=1;" vertex="1" parent="1">
          <mxGeometry x="110" y="-810" width="260" height="60" as="geometry" />
        </mxCell>
        <mxCell id="A3DCuacnZcsxC5jQ6PG0-11" value="" style="endArrow=classic;html=1;rounded=0;" edge="1" parent="1" target="A3DCuacnZcsxC5jQ6PG0-12">
          <mxGeometry width="50" height="50" relative="1" as="geometry">
            <mxPoint x="240" y="-750" as="sourcePoint" />
            <mxPoint x="240" y="-730" as="targetPoint" />
          </mxGeometry>
        </mxCell>
        <mxCell id="A3DCuacnZcsxC5jQ6PG0-12" value="return 0;" style="ellipse;whiteSpace=wrap;html=1;" vertex="1" parent="1">
          <mxGeometry x="180" y="-730" width="120" height="80" as="geometry" />
        </mxCell>
        <mxCell id="A3DCuacnZcsxC5jQ6PG0-13" value="" style="endArrow=none;dashed=1;html=1;dashPattern=1 3;strokeWidth=2;rounded=0;" edge="1" parent="1">
          <mxGeometry width="50" height="50" relative="1" as="geometry">
            <mxPoint x="240" y="-1060" as="sourcePoint" />
            <mxPoint x="330" y="-1060" as="targetPoint" />
          </mxGeometry>
        </mxCell>
        <mxCell id="A3DCuacnZcsxC5jQ6PG0-14" value="" style="endArrow=none;html=1;rounded=0;" edge="1" parent="1">
          <mxGeometry width="50" height="50" relative="1" as="geometry">
            <mxPoint x="330" y="-1040" as="sourcePoint" />
            <mxPoint x="330" y="-1090" as="targetPoint" />
          </mxGeometry>
        </mxCell>
        <mxCell id="A3DCuacnZcsxC5jQ6PG0-15" value="" style="endArrow=none;html=1;rounded=0;" edge="1" parent="1">
          <mxGeometry width="50" height="50" relative="1" as="geometry">
            <mxPoint x="330" y="-1040" as="sourcePoint" />
            <mxPoint x="360" y="-1040" as="targetPoint" />
          </mxGeometry>
        </mxCell>
        <mxCell id="A3DCuacnZcsxC5jQ6PG0-17" value="" style="endArrow=none;html=1;rounded=0;" edge="1" parent="1">
          <mxGeometry width="50" height="50" relative="1" as="geometry">
            <mxPoint x="330" y="-1090" as="sourcePoint" />
            <mxPoint x="360" y="-1090" as="targetPoint" />
          </mxGeometry>
        </mxCell>
        <mxCell id="A3DCuacnZcsxC5jQ6PG0-18" value="#include &amp;lt;iostream&amp;gt;&lt;br&gt;#include &amp;lt;cstdarg&amp;gt;&lt;div&gt;va_list args;&lt;/div&gt;" style="text;html=1;align=center;verticalAlign=middle;whiteSpace=wrap;rounded=0;" vertex="1" parent="1">
          <mxGeometry x="320" y="-1080" width="170" height="30" as="geometry" />
        </mxCell>
        <mxCell id="A3DCuacnZcsxC5jQ6PG0-19" value="Начало" style="ellipse;whiteSpace=wrap;html=1;" vertex="1" parent="1">
          <mxGeometry x="570" y="-1150" width="120" height="80" as="geometry" />
        </mxCell>
        <mxCell id="A3DCuacnZcsxC5jQ6PG0-20" value="" style="endArrow=classic;html=1;rounded=0;" edge="1" parent="1" target="A3DCuacnZcsxC5jQ6PG0-21">
          <mxGeometry width="50" height="50" relative="1" as="geometry">
            <mxPoint x="630" y="-1070" as="sourcePoint" />
            <mxPoint x="640" y="-1010" as="targetPoint" />
          </mxGeometry>
        </mxCell>
        <mxCell id="A3DCuacnZcsxC5jQ6PG0-21" value="va_start(args, count);" style="rounded=0;whiteSpace=wrap;html=1;" vertex="1" parent="1">
          <mxGeometry x="570" y="-1050" width="120" height="60" as="geometry" />
        </mxCell>
        <mxCell id="A3DCuacnZcsxC5jQ6PG0-22" value="" style="endArrow=classic;html=1;rounded=0;" edge="1" parent="1">
          <mxGeometry width="50" height="50" relative="1" as="geometry">
            <mxPoint x="629.66" y="-990" as="sourcePoint" />
            <mxPoint x="629.66" y="-970" as="targetPoint" />
          </mxGeometry>
        </mxCell>
        <mxCell id="A3DCuacnZcsxC5jQ6PG0-23" value="int result = 0;" style="rounded=0;whiteSpace=wrap;html=1;" vertex="1" parent="1">
          <mxGeometry x="570" y="-970" width="120" height="60" as="geometry" />
        </mxCell>
        <mxCell id="A3DCuacnZcsxC5jQ6PG0-24" value="" style="endArrow=classic;html=1;rounded=0;" edge="1" parent="1">
          <mxGeometry width="50" height="50" relative="1" as="geometry">
            <mxPoint x="630" y="-910" as="sourcePoint" />
            <mxPoint x="630" y="-890" as="targetPoint" />
          </mxGeometry>
        </mxCell>
        <mxCell id="A3DCuacnZcsxC5jQ6PG0-25" value="for (int i = 0; i &lt; count / 2; ++i)" style="shape=hexagon;perimeter=hexagonPerimeter2;whiteSpace=wrap;html=1;fixedSize=1;" vertex="1" parent="1">
          <mxGeometry x="560" y="-890" width="140" height="80" as="geometry" />
        </mxCell>
        <mxCell id="A3DCuacnZcsxC5jQ6PG0-27" value="{" style="text;html=1;align=center;verticalAlign=middle;whiteSpace=wrap;rounded=0;" vertex="1" parent="1">
          <mxGeometry x="190" y="-1070" width="50" height="20" as="geometry" />
        </mxCell>
        <mxCell id="A3DCuacnZcsxC5jQ6PG0-28" value="}" style="text;html=1;align=center;verticalAlign=middle;whiteSpace=wrap;rounded=0;" vertex="1" parent="1">
          <mxGeometry x="230" y="-650" width="60" height="30" as="geometry" />
        </mxCell>
        <mxCell id="A3DCuacnZcsxC5jQ6PG0-29" value="" style="endArrow=classic;html=1;rounded=0;" edge="1" parent="1">
          <mxGeometry width="50" height="50" relative="1" as="geometry">
            <mxPoint x="630" y="-810" as="sourcePoint" />
            <mxPoint x="630" y="-790" as="targetPoint" />
          </mxGeometry>
        </mxCell>
        <mxCell id="A3DCuacnZcsxC5jQ6PG0-30" value="int a = va_arg(args, int);" style="rounded=0;whiteSpace=wrap;html=1;" vertex="1" parent="1">
          <mxGeometry x="570" y="-790" width="120" height="60" as="geometry" />
        </mxCell>
        <mxCell id="A3DCuacnZcsxC5jQ6PG0-31" value="" style="endArrow=classic;html=1;rounded=0;" edge="1" parent="1" target="A3DCuacnZcsxC5jQ6PG0-32">
          <mxGeometry width="50" height="50" relative="1" as="geometry">
            <mxPoint x="630" y="-730" as="sourcePoint" />
            <mxPoint x="630" y="-710" as="targetPoint" />
          </mxGeometry>
        </mxCell>
        <mxCell id="A3DCuacnZcsxC5jQ6PG0-32" value="int b = va_arg(args, int);" style="rounded=0;whiteSpace=wrap;html=1;" vertex="1" parent="1">
          <mxGeometry x="570" y="-709.9999999999999" width="120" height="60" as="geometry" />
        </mxCell>
        <mxCell id="A3DCuacnZcsxC5jQ6PG0-33" value="" style="endArrow=classic;html=1;rounded=0;" edge="1" parent="1" target="A3DCuacnZcsxC5jQ6PG0-34">
          <mxGeometry width="50" height="50" relative="1" as="geometry">
            <mxPoint x="630" y="-650" as="sourcePoint" />
            <mxPoint x="630" y="-630" as="targetPoint" />
          </mxGeometry>
        </mxCell>
        <mxCell id="A3DCuacnZcsxC5jQ6PG0-34" value="result += a * b;" style="rounded=0;whiteSpace=wrap;html=1;" vertex="1" parent="1">
          <mxGeometry x="570" y="-630" width="120" height="60" as="geometry" />
        </mxCell>
        <mxCell id="A3DCuacnZcsxC5jQ6PG0-35" value="" style="endArrow=classic;html=1;rounded=0;entryX=0;entryY=0.5;entryDx=0;entryDy=0;" edge="1" parent="1" target="A3DCuacnZcsxC5jQ6PG0-25">
          <mxGeometry width="50" height="50" relative="1" as="geometry">
            <mxPoint x="630" y="-570" as="sourcePoint" />
            <mxPoint x="480" y="-850" as="targetPoint" />
            <Array as="points">
              <mxPoint x="630" y="-520" />
              <mxPoint x="480" y="-520" />
              <mxPoint x="480" y="-850" />
            </Array>
          </mxGeometry>
        </mxCell>
        <mxCell id="A3DCuacnZcsxC5jQ6PG0-36" value="{" style="text;html=1;align=center;verticalAlign=middle;whiteSpace=wrap;rounded=0;" vertex="1" parent="1">
          <mxGeometry x="590" y="-810" width="50" height="20" as="geometry" />
        </mxCell>
        <mxCell id="A3DCuacnZcsxC5jQ6PG0-38" value="}" style="text;html=1;align=center;verticalAlign=middle;whiteSpace=wrap;rounded=0;" vertex="1" parent="1">
          <mxGeometry x="610" y="-560" width="60" height="30" as="geometry" />
        </mxCell>
        <mxCell id="A3DCuacnZcsxC5jQ6PG0-39" value="{" style="text;html=1;align=center;verticalAlign=middle;whiteSpace=wrap;rounded=0;" vertex="1" parent="1">
          <mxGeometry x="585" y="-1075" width="60" height="30" as="geometry" />
        </mxCell>
        <mxCell id="A3DCuacnZcsxC5jQ6PG0-40" value="" style="endArrow=classic;html=1;rounded=0;" edge="1" parent="1">
          <mxGeometry width="50" height="50" relative="1" as="geometry">
            <mxPoint x="700" y="-850" as="sourcePoint" />
            <mxPoint x="630" y="-460" as="targetPoint" />
            <Array as="points">
              <mxPoint x="760" y="-850" />
              <mxPoint x="760" y="-487" />
              <mxPoint x="630" y="-487" />
            </Array>
          </mxGeometry>
        </mxCell>
        <mxCell id="A3DCuacnZcsxC5jQ6PG0-41" value="va_end(args);" style="rounded=0;whiteSpace=wrap;html=1;" vertex="1" parent="1">
          <mxGeometry x="570" y="-460" width="120" height="60" as="geometry" />
        </mxCell>
        <mxCell id="A3DCuacnZcsxC5jQ6PG0-42" value="" style="endArrow=classic;html=1;rounded=0;" edge="1" parent="1" target="A3DCuacnZcsxC5jQ6PG0-43">
          <mxGeometry width="50" height="50" relative="1" as="geometry">
            <mxPoint x="630" y="-400" as="sourcePoint" />
            <mxPoint x="630" y="-380" as="targetPoint" />
          </mxGeometry>
        </mxCell>
        <mxCell id="A3DCuacnZcsxC5jQ6PG0-43" value="return result;" style="ellipse;whiteSpace=wrap;html=1;" vertex="1" parent="1">
          <mxGeometry x="570" y="-380" width="120" height="80" as="geometry" />
        </mxCell>
        <mxCell id="A3DCuacnZcsxC5jQ6PG0-44" value="}" style="text;html=1;align=center;verticalAlign=middle;whiteSpace=wrap;rounded=0;" vertex="1" parent="1">
          <mxGeometry x="620" y="-300" width="60" height="30" as="geometry" />
        </mxCell>
      </root>
    </mxGraphModel>
  </diagram>
</mxfile>
